<svg version="1.2" xmlns="http://www.w3.org/2000/svg" viewBox="0 0 153 45" width="153" height="45">
	<title>image</title>
	<style>
		.s0 { fill: #ffffff } 
	</style>
	<path id="Layer" class="s0" d="m19.7 0c1 0 1.1 0.2 0.9 1.4-0.2 0.9-0.2 0.9-1 0.8-0.5-0.1-0.9-0.2-0.9-0.2 0 0 0-0.5 0.1-1 0.1-1 0.2-1 0.9-1z"/>
	<path id="Layer" class="s0" d="m19.1 2.8c0.5 0 0.9 0 0.9 0.1 0 0.3-0.7 1.5-1.2 1.9l-0.5 0.5-0.7-0.5-0.7-0.6 0.7-0.7c0.5-0.5 0.8-0.7 1.5-0.7z"/>
	<path id="Layer" class="s0" d="m17.5 5.3l0.5 0.5-0.9 0.6c-0.5 0.3-1 0.6-1.1 0.6-0.2 0-1.4-1.1-1.3-1.3 0.1 0 0.5-0.2 0.9-0.4 1.1-0.5 1.2-0.5 1.9 0z"/>
	<path id="Layer" class="s0" d="m14.6 6.7c0.7 0.5 0.7 0.7-0.4 1.2l-1 0.4-0.6-0.6c-0.6-0.8-0.6-0.8 0.2-1.1 0.8-0.4 1.2-0.4 1.8 0.1z"/>
	<path id="Layer" class="s0" d="m12.1 8l0.5 0.5-0.9 0.4-0.9 0.5-1.5-1.4 0.6-0.3c1.1-0.3 1.7-0.3 2.2 0.3z"/>
	<path id="Layer" class="s0" d="m9.7 9.1c0.4 0.5 0.4 0.5-0.6 0.9-0.6 0.3-0.8 0.3-1.2-0.1-0.2-0.2-0.5-0.3-0.6-0.3-0.5 0-0.4-0.4 0.2-0.7 0.8-0.4 1.7-0.3 2.2 0.2z"/>
	<path id="Layer" class="s0" d="m7.6 10.4c0.4 0.3 0.4 0.3-0.2 0.7-0.4 0.4-0.7 0.5-1.1 0.3-0.3-0.1-0.8-0.2-1-0.1-0.4 0.2-0.4 0.1-0.2-0.3 0.1-0.3 0.5-0.6 0.8-0.7 0.7-0.3 1.2-0.3 1.7 0.1z"/>
	<path id="Layer" class="s0" d="m5.7 11.9c1.1 0 0.6 1.1-0.9 1.8l-0.9 0.5v-0.6c0-0.3 0.3-0.8 0.6-1.1 0.3-0.3 0.9-0.6 1.2-0.6z"/>
	<path id="Layer" class="s0" d="m5.9 14.8c0 0.6-0.1 0.9-0.6 1.5l-0.6 0.7-0.2-0.6c-0.4-0.8-0.4-1.1 0.2-1.8 0.6-0.8 1-0.8 1.2 0.2z"/>
	<path id="Layer" class="s0" d="m13.6 14.2c1 0 1 0 1.1 0.8l0.1 0.9-1.3-0.1c-1 0-1.3-0.2-1.6-0.6-0.3-0.5-0.3-0.5 0.2-0.7 0.3-0.1 1-0.3 1.5-0.3z"/>
	<path id="Layer" class="s0" d="m16 14.4c0.8 0.2 2.2 0.7 2.2 0.8 0 0.2-0.5 1.6-0.6 1.6 0 0-0.5-0.2-0.9-0.4-1-0.4-1.7-1.3-1.5-1.8 0.1-0.3 0.3-0.4 0.8-0.2z"/>
	<path id="Layer" class="s0" d="m11.5 15.6l0.6 0.6-0.5 0.3c-0.8 0.4-1.7 0.3-2.2-0.2-0.4-0.4-0.4-0.4 0.4-0.9 1-0.6 1-0.6 1.7 0.2z"/>
	<path id="Layer" class="s0" d="m20.1 17c0.8 1 0.8 1.3 0 1.7-0.4 0.1-0.7 0.3-0.8 0.4-0.1 0-0.4-0.5-0.6-1.1-0.5-0.9-0.5-1.2-0.3-1.7 0.4-0.7 0.8-0.6 1.7 0.7z"/>
	<path id="Layer" class="s0" d="m6.1 16.3c0.6 0 0.6 0.7 0.1 1.3-0.4 0.5-0.5 0.6-0.7 0.3-0.1-0.2-0.1-0.6 0.1-1 0.1-0.3 0.3-0.6 0.5-0.6z"/>
	<path id="Layer" class="s0" d="m8.4 16.3l0.7 0.5c0.4 0.3 0.7 0.6 0.7 0.6 0 0.2-1.3 1.4-1.8 1.7-0.7 0.3-0.8 0.3-1.4-0.1-0.4-0.3-0.4-0.3 0.7-1.5z"/>
	<path id="Layer" class="s0" d="m16.5 17.9c2 1.5 2.2 4.1 0.5 5.8-0.5 0.6-0.7 0.9-0.6 1.2 0.2 0.4 0.2 0.4 1.5 0 0.8-0.2 2.3-0.5 3.4-0.7 1.6-0.2 2.2-0.2 3.7 0.1 3.1 0.7 3.5 1.1 5.8 6.5 1.3 3.2 1.4 3.9 0.4 6-0.6 1.2-3.5 4.2-4.1 4.2-0.3 0 0.1-0.5 1.1-1.5 1.9-2 2.6-3.1 2.6-4.6 0-1.4-0.8-2.3-2.5-2.9-4.1-1.6-11.2 0.5-15.2 4.5-2.2 2.2-2.9 4.3-1.9 5.9 0.5 0.9 1.2 1.3 2.9 1.8 1 0.3 1.8 0.4 2.9 0.3 2-0.2 2.2 0.2 0.3 0.4-2.8 0.4-6-0.4-7.1-1.8-0.3-0.3-1.2-2.1-2-4-1.3-3-1.5-3.7-1.4-4.6 0.2-2.4 2.5-5.2 5.9-7.2 2.1-1.3 2.2-1.7 0.3-1.9-1.7-0.1-2.8-0.8-3.4-2.1-0.3-0.7-0.5-1.2-0.5-1.3 0.1 0 0.7 0.1 1.4 0.4 2.1 0.7 3.3 0.8 4.1 0.4 0.8-0.4 1-0.8 1-1.8 0-1-0.6-1.4-2.6-1.6-2.8-0.2-3.1-0.7-1-1.7 1.2-0.6 3.6-0.5 4.5 0.2z"/>
	<path id="Layer" class="s0" d="m21.1 20.1c0.1 0.7 0 1.1-0.3 1.3-1 0.8-1.7-1.1-0.7-2 0.7-0.7 1-0.5 1 0.7z"/>
	<path id="Layer" class="s0" d="m9.1 20.1c-0.1 0.8-0.1 0.9-0.5 0.6-0.6-0.2-0.6-0.3 0-1 0.5-0.8 0.6-0.7 0.5 0.4z"/>
	<path id="Layer" class="s0" d="m6 19.5c0.2 0 0.6 0.2 0.9 0.2 0.7 0.2 0.7 0.4 0 1.1-0.7 0.6-2.1 0.7-2.5 0.3-0.2-0.2-0.1-0.5 0.5-1 0.4-0.4 0.9-0.7 1.1-0.6z"/>
	<path id="Layer" class="s0" d="m11.6 20.6c0 0.2 0.2 0.6 0.3 0.9 0.2 0.5 0.2 0.5-0.5 0.3-0.4 0-0.9-0.3-1.1-0.4-0.4-0.3-0.8-1.3-0.6-1.6 0.3-0.5 1.9 0.1 1.9 0.8z"/>
	<path id="Layer" class="s0" d="m13.3 20.4c1.2 0.2 1.6 0.5 1.6 1.1-0.1 0.4-0.3 0.6-0.9 0.6-0.9 0.1-1.7-0.5-1.7-1.3 0-0.5 0.1-0.5 1-0.4z"/>
	<path id="Layer" class="s0" d="m4.4 21.6c0.9 0.5 0.9 0.6 0.1 1-1.5 0.7-3.4-0.4-1.9-1.1 0.7-0.3 1-0.3 1.8 0.1z"/>
	<path id="Layer" class="s0" d="m1.9 22.7c0.4 0.4 0.6 0.7 0.5 0.8 0 0.1-0.5 0.2-1.1 0.2-0.9 0.1-1 0.1-1.2-0.4-0.2-0.9-0.1-1.1 0.5-1.2 0.5 0 0.8 0.1 1.3 0.6z"/>
	<path id="Layer" fill-rule="evenodd" class="s0" d="m27.3 33.1c3.2 1.7 1.5 5.2-3.9 7.9-5 2.4-9.6 2.5-10.8 0.2-1.2-2.4 4.4-6.8 10.3-8.2 1-0.2 3.9-0.1 4.4 0.1zm-1.8 0.8c-5.6-0.2-14 5.3-11.5 7.5 0.4 0.4 0.8 0.5 2.4 0.4 3.4 0 7.6-1.7 10.1-4.1 1.6-1.7 1.9-2.3 1.1-3.1-0.5-0.6-0.7-0.7-2.1-0.7z"/>
	<path id="Layer" class="s0" d="m22.8 37.1c0 0.3-1.4 1.3-2.3 1.6-0.9 0.3-1.9 0.3-1.9 0.1 0-0.4 1.2-1.3 2.1-1.6 1-0.4 2.1-0.4 2.1-0.1z"/>
	<path id="Layer" fill-rule="evenodd" class="s0" d="m38.2 11.6h3.8l6.4 15.9h0.3l6.5-15.9h3.7v20.4h-2.9v-14.7h-0.2l-6 14.7h-2.4l-6.1-14.7h-0.1v14.7h-3zm29.4 20.7q-1.5 0-2.7-0.5-1.1-0.6-1.8-1.6-0.7-1.1-0.7-2.6 0-1.2 0.5-2.1 0.5-0.8 1.4-1.3 0.8-0.5 1.8-0.7 1.1-0.3 2.2-0.4 1.3-0.2 2.2-0.3 0.9-0.1 1.2-0.3 0.4-0.3 0.4-0.8v-0.1q0-1.3-0.7-2-0.7-0.7-2.2-0.7-1.5 0-2.3 0.7-0.9 0.6-1.2 1.4l-2.8-0.6q0.5-1.4 1.4-2.3 1-0.8 2.2-1.2 1.3-0.4 2.7-0.4 0.9 0 1.9 0.2 1.1 0.2 2 0.8 0.9 0.6 1.4 1.6 0.6 1.1 0.6 2.7v10.2h-2.9v-2.1h-0.1q-0.3 0.6-0.9 1.1-0.6 0.6-1.5 0.9-0.9 0.4-2.1 0.4zm0.6-2.4q1.3 0 2.1-0.5 0.9-0.5 1.4-1.2 0.4-0.8 0.4-1.7v-2q-0.1 0.1-0.6 0.3-0.4 0.1-1 0.2-0.6 0.1-1.1 0.2-0.6 0.1-0.9 0.1-0.9 0.1-1.6 0.4-0.7 0.2-1.2 0.7-0.4 0.5-0.4 1.3 0 1.1 0.8 1.7 0.9 0.5 2.1 0.5zm17.3 8.1q-1.8 0-3.2-0.5-1.3-0.4-2.1-1.2-0.8-0.8-1.2-1.8l2.5-1q0.3 0.4 0.8 0.9 0.4 0.5 1.2 0.9 0.8 0.3 2 0.3 1.7 0 2.8-0.8 1.1-0.8 1.1-2.6v-3h-0.2q-0.3 0.5-0.8 1.1-0.5 0.6-1.3 1-0.9 0.4-2.3 0.4-1.8 0-3.3-0.8-1.4-0.9-2.3-2.5-0.8-1.7-0.8-4.1 0-2.5 0.8-4.2 0.9-1.7 2.3-2.7 1.5-0.9 3.3-0.9 1.4 0 2.3 0.5 0.9 0.4 1.4 1.1 0.5 0.6 0.7 1.1h0.2v-2.5h3v15.6q0 2-1 3.2-0.9 1.3-2.4 1.9-1.6 0.6-3.5 0.6zm-0.1-8.7q1.3 0 2.2-0.6 0.9-0.6 1.4-1.8 0.4-1.1 0.4-2.7 0-1.5-0.4-2.7-0.5-1.2-1.4-1.8-0.9-0.7-2.2-0.7-1.3 0-2.2 0.7-0.9 0.7-1.3 1.9-0.5 1.2-0.5 2.6 0 1.5 0.5 2.7 0.4 1.1 1.3 1.7 0.9 0.7 2.2 0.7zm13.9-6.4v9.1h-2.9v-15.3h2.8v2.5h0.2q0.5-1.2 1.6-2 1.2-0.7 2.9-0.7 1.6 0 2.7 0.6 1.2 0.7 1.9 2 0.6 1.3 0.6 3.1v9.8h-3v-9.4q0-1.7-0.8-2.6-0.9-0.9-2.4-0.9-1.1 0-1.9 0.4-0.8 0.5-1.2 1.3-0.5 0.9-0.5 2.1zm20.4 9.4q-2.3 0-3.9-1-1.6-1-2.5-2.7-0.9-1.8-0.9-4.2 0-2.3 0.9-4.1 0.9-1.8 2.4-2.8 1.6-1 3.8-1 1.3 0 2.5 0.4 1.2 0.4 2.1 1.4 1 0.9 1.6 2.3 0.5 1.5 0.5 3.6v1h-10.8q0 1.4 0.5 2.4 0.5 1.1 1.5 1.7 1 0.5 2.3 0.5 0.8 0 1.5-0.2 0.7-0.3 1.2-0.8 0.5-0.4 0.8-1.2l2.8 0.5q-0.3 1.3-1.2 2.2-0.8 0.9-2.2 1.5-1.3 0.5-2.9 0.5zm-4.3-7.1q0-0.1 0-0.2v-1.7q0-0.2 0-0.3h-1.3v2.2zm7.9-2.2q0-1.2-0.5-2.1-0.4-0.9-1.3-1.4-0.9-0.6-2-0.6-1.3 0-2.2 0.7-0.9 0.6-1.4 1.6-0.5 0.8-0.5 1.8zm13.3-6.3v2.4h-3.1v8.4q0 0.8 0.3 1.3 0.2 0.4 0.6 0.6 0.4 0.1 0.9 0.1 0.4 0 0.6 0 0.3-0.1 0.5-0.1l0.5 2.4q-0.3 0.1-0.7 0.2-0.5 0.2-1.2 0.2-1.2 0-2.2-0.5-1-0.4-1.7-1.3-0.6-0.9-0.6-2.3v-9h-2.2v-2.4h2.2v-3.7h3v3.7zm5.2 21q-0.7 0-1.3-0.1-0.5-0.1-0.8-0.2l0.7-2.5q0.9 0.2 1.5 0.2 0.6 0 1.1-0.5 0.5-0.4 0.9-1.4l0.4-1-5.6-15.5h3.2l3.8 11.8h0.2l3.9-11.8h3.1l-6.2 17.3q-0.5 1.2-1.2 2-0.6 0.9-1.6 1.3-0.9 0.4-2.1 0.4z"/>
</svg>